<?xml version="1.0" encoding="UTF-8" ?>
<!DOCTYPE svg PUBLIC "-//W3C//DTD SVG 1.1//EN" "http://www.w3.org/Graphics/SVG/1.1/DTD/svg11.dtd">
<svg width="837pt" height="525pt" viewBox="0 0 837 525" version="1.1" xmlns="http://www.w3.org/2000/svg">
<path fill="#fefdfe" d=" M 0.00 0.00 L 837.00 0.00 L 837.00 525.00 L 0.00 525.00 L 0.00 0.00 Z" />
<path fill="#5c3881" d=" M 121.50 15.75 C 122.55 19.90 125.19 24.93 121.93 28.72 C 120.26 31.59 116.81 31.90 113.84 32.03 C 115.98 33.66 118.09 35.34 120.19 37.02 C 120.44 35.68 120.68 34.34 120.93 33.00 C 122.92 27.81 128.31 23.61 134.05 24.46 C 137.55 24.79 139.86 27.80 142.25 30.03 C 142.21 30.59 142.18 31.15 142.15 31.72 C 141.16 30.40 140.14 29.12 139.08 27.87 C 137.74 27.12 136.40 26.34 135.08 25.55 C 129.71 24.57 125.25 28.42 122.75 32.77 C 122.60 33.99 122.18 35.10 121.48 36.10 C 121.95 39.93 122.78 43.82 124.73 47.19 C 126.59 50.14 129.89 51.65 132.91 53.13 C 134.25 53.51 135.59 53.91 136.91 54.37 C 138.31 54.42 139.70 54.46 141.10 54.50 C 142.29 52.59 143.42 50.65 144.58 48.73 C 144.90 49.57 145.54 51.25 145.86 52.09 C 148.70 49.75 151.12 46.99 153.08 43.87 C 151.95 47.50 148.91 49.85 146.44 52.52 C 145.35 55.46 145.72 59.05 143.39 61.53 C 139.95 66.12 133.60 65.30 128.56 65.67 C 127.26 78.75 125.46 91.79 124.05 104.86 C 130.49 104.64 136.64 102.52 143.04 101.98 C 145.69 101.80 148.91 102.15 150.53 104.55 C 151.53 106.29 151.72 108.33 152.20 110.24 C 148.44 108.19 144.18 107.88 139.99 108.30 C 137.55 119.49 135.57 130.78 132.99 141.94 C 130.68 151.32 125.40 160.94 116.11 164.89 C 110.32 167.81 103.11 166.29 98.51 161.88 C 96.80 157.74 99.87 154.29 103.16 152.21 C 103.88 154.73 104.21 157.80 106.65 159.31 C 111.22 162.13 118.21 160.71 120.57 155.64 C 125.34 145.76 126.04 134.60 128.77 124.10 C 127.33 123.12 127.00 121.72 129.11 121.35 C 129.85 117.59 130.68 113.84 131.47 110.08 C 128.74 110.28 126.01 110.36 123.28 110.23 C 122.93 114.21 122.34 118.20 122.76 122.20 C 120.66 123.70 118.20 124.48 115.61 124.30 C 115.58 122.69 115.59 121.08 115.65 119.47 C 115.70 118.04 115.77 116.61 115.87 115.18 C 115.95 114.59 116.11 113.40 116.19 112.80 C 117.79 108.94 118.14 104.78 117.88 100.65 C 118.30 96.09 118.85 91.54 119.34 86.98 C 115.08 91.96 108.60 94.30 102.12 93.88 L 102.18 94.74 C 102.19 96.71 102.12 98.68 102.13 100.65 C 101.91 102.07 99.98 102.45 99.07 103.42 C 98.63 103.19 98.20 102.97 97.76 102.74 C 96.40 101.89 94.68 101.39 93.77 99.97 C 92.58 98.08 94.46 96.40 96.12 95.81 C 96.23 96.48 96.44 97.82 96.55 98.50 C 97.15 98.42 98.34 98.28 98.94 98.20 C 97.41 93.34 90.62 91.23 86.97 95.06 C 84.83 98.21 85.93 102.13 86.74 105.53 C 86.10 106.25 85.46 106.96 84.80 107.65 C 82.40 107.64 80.14 105.94 77.80 105.32 C 79.87 105.53 81.92 105.93 83.92 106.54 C 84.40 106.01 84.87 105.48 85.33 104.93 C 83.91 102.33 83.29 99.40 83.46 96.45 C 84.66 94.28 86.17 92.30 88.00 90.63 C 89.62 90.33 91.24 90.01 92.85 89.69 C 91.73 88.44 90.62 87.19 89.57 85.89 C 88.58 83.93 87.83 81.86 87.20 79.76 C 86.22 74.65 87.52 69.25 85.16 64.35 C 84.66 64.37 83.66 64.40 83.16 64.42 L 84.87 64.04 C 84.06 62.91 83.24 61.78 82.42 60.66 C 82.57 60.60 82.87 60.50 83.03 60.45 C 85.00 63.08 86.38 66.08 87.60 69.12 C 89.82 65.88 92.40 62.53 96.20 61.11 C 100.10 59.54 104.66 60.01 108.19 62.27 L 108.38 62.41 C 109.30 60.65 110.19 58.77 111.95 57.69 C 115.49 56.72 119.38 55.04 120.37 51.11 C 120.71 46.60 120.70 41.66 118.28 37.67 C 115.25 33.93 109.88 31.78 105.16 33.13 C 99.60 34.32 95.69 39.57 94.54 44.91 C 93.53 49.13 95.65 53.07 96.66 57.05 C 93.84 51.91 92.53 45.59 95.39 40.16 C 98.18 32.99 106.96 30.05 113.95 32.47 C 110.78 30.48 106.76 26.40 109.39 22.47 C 110.87 19.51 116.12 20.35 115.75 23.95 C 116.69 26.30 113.88 25.84 112.49 26.37 C 113.07 25.73 114.23 24.45 114.81 23.81 C 113.64 23.53 112.47 23.27 111.29 23.01 C 109.64 27.93 117.05 32.51 120.20 28.10 C 123.54 24.68 122.08 19.89 121.50 15.75 Z" />
<path fill="#807b94" d=" M 98.21 49.99 C 96.42 43.99 100.50 36.70 106.92 36.04 C 110.01 35.45 112.89 36.94 115.27 38.76 C 112.55 38.55 109.83 37.51 107.11 38.01 C 101.70 39.19 99.14 45.95 101.20 50.79 C 102.63 55.33 107.47 57.59 111.95 57.69 C 110.19 58.77 109.30 60.65 108.38 62.41 L 108.19 62.27 C 103.88 59.13 99.15 55.66 98.21 49.99 Z" />
<path fill="#fefdfe" d=" M 118.38 57.77 C 120.85 54.84 122.27 51.27 123.63 47.74 C 125.18 50.75 128.11 52.45 131.00 53.97 C 132.02 54.27 133.04 54.57 134.07 54.87 C 136.32 55.32 138.62 55.44 140.91 55.62 C 139.07 56.57 137.21 57.74 135.06 57.64 C 129.50 57.79 123.94 57.55 118.38 57.77 Z" />
<path fill="#fefdfe" d=" M 92.86 69.83 C 94.74 65.65 99.90 63.29 104.28 64.74 C 107.43 66.15 109.17 69.70 109.28 73.02 C 109.05 76.20 106.76 78.56 103.98 79.83 C 101.37 79.51 98.67 77.83 98.54 74.95 C 98.12 72.57 100.57 71.41 102.06 70.13 C 103.84 71.45 105.43 73.19 104.78 75.58 C 103.95 76.43 103.13 77.30 102.34 78.18 C 104.75 78.42 106.39 76.76 107.89 75.16 C 107.93 71.95 106.70 67.82 102.99 67.35 C 98.47 66.18 94.22 70.54 94.54 74.96 C 94.17 81.50 102.27 86.53 107.92 83.07 C 114.36 80.47 115.99 72.24 113.49 66.30 C 116.23 65.80 119.00 65.51 121.78 65.41 C 121.23 72.07 120.66 78.78 119.34 85.34 C 115.36 90.72 107.55 93.41 101.07 91.66 C 92.56 89.72 87.60 79.64 90.33 71.55 C 90.47 74.19 90.59 76.86 91.45 79.38 C 91.79 76.20 91.47 72.82 92.86 69.83 Z" />
<path fill="#5c3881" d=" M 130.40 83.12 C 129.51 78.39 134.30 74.52 138.48 73.47 C 138.89 73.80 139.73 74.46 140.15 74.79 C 140.41 75.44 140.67 76.08 140.94 76.73 C 140.39 77.07 139.30 77.76 138.76 78.10 C 139.08 82.49 139.25 86.89 139.19 91.29 C 138.93 94.40 138.66 97.55 137.84 100.57 C 136.26 100.78 134.67 100.82 133.08 100.90 C 134.19 92.97 136.24 85.07 136.11 77.04 C 133.90 78.77 132.20 81.00 130.40 83.12 Z" />
<path fill="#5c3881" d=" M 183.89 74.74 C 186.59 72.82 189.99 73.71 192.71 75.04 C 192.28 77.33 191.82 79.62 191.35 81.90 C 190.86 81.90 189.89 81.89 189.40 81.89 C 189.04 80.29 189.87 77.90 188.02 77.05 C 186.18 76.86 183.97 77.27 183.16 79.16 C 180.33 84.14 179.25 90.38 180.87 95.92 C 184.73 99.23 188.24 93.99 191.85 92.97 C 191.30 97.37 186.82 99.57 183.11 100.95 C 179.97 102.02 177.16 99.85 175.74 97.22 L 176.00 95.58 C 176.50 92.59 176.41 89.54 176.22 86.52 C 176.86 81.79 180.06 77.50 183.89 74.74 Z" />
<path fill="#4a484c" d=" M 140.48 83.05 C 142.90 79.10 145.49 73.21 151.05 73.77 C 152.56 74.80 151.52 76.39 151.21 77.75 C 150.46 76.61 149.71 75.46 148.97 74.32 C 147.96 75.29 146.95 76.27 145.95 77.24 C 146.24 77.55 146.83 78.17 147.12 78.48 C 148.16 78.29 149.21 78.10 150.26 77.92 C 150.29 78.33 150.34 79.15 150.37 79.56 C 148.68 79.52 146.57 78.64 145.42 80.40 C 142.71 83.62 141.22 87.64 139.19 91.29 C 139.25 86.89 139.08 82.49 138.76 78.10 C 139.30 77.76 140.39 77.07 140.94 76.73 C 140.84 78.84 140.69 80.95 140.48 83.05 Z" />
<path fill="#4a484c" d=" M 161.85 74.95 C 164.99 73.54 168.52 74.18 171.83 74.38 C 170.79 82.22 168.65 90.00 168.83 97.95 C 171.12 96.63 172.21 92.86 175.22 93.35 C 175.30 90.80 175.52 88.25 176.17 85.77 L 176.22 86.52 C 176.41 89.54 176.50 92.59 176.00 95.58 C 175.63 95.47 174.90 95.23 174.53 95.11 C 172.47 97.91 170.00 101.54 166.02 101.11 C 162.55 98.94 164.29 94.23 164.77 90.95 C 163.09 94.55 161.25 98.45 157.73 100.61 C 156.20 101.52 154.42 100.71 152.80 100.54 C 154.52 100.09 156.24 99.64 157.97 99.20 C 152.24 94.71 157.99 87.31 155.04 81.79 L 155.00 81.67 C 156.78 79.01 158.78 76.21 161.85 74.95 Z" />
<path fill="#4a484c" d=" M 194.70 82.27 C 192.39 78.41 196.96 74.53 200.33 73.23 C 201.35 74.39 202.28 75.62 202.98 77.00 L 203.93 76.36 C 202.69 82.24 204.08 88.19 204.69 94.06 C 207.67 91.81 208.32 87.87 210.22 84.84 C 210.89 87.78 211.02 90.79 210.87 93.80 C 210.28 93.29 209.69 92.79 209.10 92.28 C 209.04 92.60 208.92 93.24 208.86 93.56 C 207.61 96.14 205.97 98.50 204.14 100.70 C 203.51 100.61 202.23 100.42 201.60 100.33 C 198.31 93.25 200.49 85.02 197.56 77.90 C 196.58 79.35 195.65 80.81 194.70 82.27 Z" />
<path fill="#5c3881" d=" M 212.58 74.45 C 214.20 74.29 215.82 74.15 217.45 74.02 C 216.10 81.41 214.58 88.77 213.31 96.18 C 212.31 102.28 210.83 108.77 206.31 113.29 C 203.43 116.20 198.79 116.91 195.09 115.25 C 196.00 113.84 196.91 112.44 197.86 111.05 C 200.23 112.13 203.55 113.39 205.25 110.57 C 207.16 105.09 208.33 99.34 208.86 93.56 C 208.92 93.24 209.04 92.60 209.10 92.28 C 209.69 92.79 210.28 93.29 210.87 93.80 C 211.02 90.79 210.89 87.78 210.22 84.84 C 211.39 81.47 212.09 77.97 212.58 74.45 Z" />
<path fill="#5c3881" d=" M 145.95 77.24 C 146.95 76.27 147.96 75.29 148.97 74.32 C 149.71 75.46 150.46 76.61 151.21 77.75 L 150.26 77.92 C 149.21 78.10 148.16 78.29 147.12 78.48 C 146.83 78.17 146.24 77.55 145.95 77.24 Z" />
<path fill="#5c3881" d=" M 163.56 75.79 C 165.77 74.61 169.50 73.80 170.36 76.97 C 169.16 84.31 167.01 91.74 167.93 99.23 C 167.49 99.40 166.61 99.73 166.18 99.90 C 165.65 98.96 165.13 98.02 164.62 97.08 C 166.56 90.84 166.58 84.25 167.79 77.87 C 166.37 77.18 164.96 76.49 163.56 75.79 Z" />
<path fill="#5c3881" d=" M 197.90 75.80 C 198.80 75.58 199.69 75.37 200.59 75.14 C 200.78 75.72 201.17 76.89 201.36 77.47 L 202.09 76.18 C 202.92 77.27 203.00 78.72 201.95 79.69 C 202.38 83.82 202.66 87.98 203.35 92.08 C 203.69 94.19 205.30 95.99 205.16 98.18 C 203.32 99.14 201.55 98.09 201.43 96.03 C 199.28 89.46 202.40 81.65 197.90 75.80 Z" />
<path fill="#4a484c" d=" M 380.08 77.18 C 381.75 76.01 385.50 74.53 385.82 77.63 C 383.62 78.17 380.29 77.07 379.71 80.12 C 378.14 85.47 377.51 91.07 376.97 96.61 C 378.08 95.82 379.21 95.04 380.36 94.28 C 379.46 96.42 377.53 98.76 374.92 98.13 C 373.71 95.97 374.67 93.38 374.92 91.08 C 376.02 86.32 375.87 80.47 380.08 77.18 Z" />
<path fill="#4a484c" d=" M 502.39 82.02 C 503.47 78.31 506.84 75.82 510.63 75.41 C 510.61 76.36 510.57 77.31 510.53 78.26 C 508.91 78.26 506.98 77.41 505.78 78.94 C 504.48 82.05 504.24 85.49 503.53 88.75 C 505.21 86.41 507.11 83.98 510.16 83.52 C 511.70 87.77 509.57 92.17 509.56 96.50 C 510.68 95.80 511.80 95.08 512.92 94.34 C 512.86 94.65 512.74 95.26 512.68 95.57 C 511.18 96.82 509.50 99.10 507.33 97.78 C 506.39 93.81 508.48 89.77 508.32 85.71 C 504.00 88.20 502.67 93.36 501.77 97.91 C 501.19 97.88 500.03 97.82 499.45 97.79 C 500.35 92.52 501.02 87.19 502.39 82.02 Z" />
<path fill="#4a484c" d=" M 583.96 85.13 C 584.68 81.23 586.66 76.81 590.95 75.93 C 592.14 75.09 593.97 76.24 593.76 77.64 C 591.67 78.25 588.29 77.27 587.68 80.11 C 586.30 85.45 585.49 90.98 584.86 96.47 C 586.06 95.77 587.26 95.06 588.47 94.36 C 589.40 90.61 590.96 86.53 594.58 84.61 C 596.44 83.43 598.70 83.81 600.75 84.11 C 600.04 88.29 599.18 92.45 599.02 96.69 C 599.79 96.08 601.32 94.87 602.09 94.26 C 602.19 94.50 602.41 94.97 602.52 95.21 C 601.05 96.28 599.86 98.02 597.97 98.27 C 595.65 98.17 596.49 95.13 596.34 93.78 C 594.86 95.91 593.06 97.83 590.52 98.66 C 589.77 97.48 589.05 96.28 588.36 95.07 C 586.90 96.42 584.62 99.49 582.50 97.49 C 582.01 93.34 583.35 89.21 583.96 85.13 Z" />
<path fill="#fefdfe" d=" M 160.04 78.96 C 161.58 76.81 164.39 77.58 166.54 78.07 C 166.25 83.73 163.61 88.91 160.44 93.48 C 159.47 94.97 158.10 96.10 156.50 96.83 C 155.76 90.71 156.93 84.31 160.04 78.96 Z" />
<path fill="#4a484c" d=" M 619.09 82.03 C 619.37 80.30 620.61 79.06 621.84 77.92 C 622.43 80.03 620.61 81.13 619.09 82.03 Z" />
<path fill="#4a484c" d=" M 361.92 80.92 C 365.76 78.66 370.40 79.22 374.66 79.30 C 374.45 80.62 374.25 81.95 374.06 83.28 C 372.90 81.25 370.88 80.52 368.65 80.40 C 368.22 82.88 367.80 85.36 367.35 87.84 C 368.59 87.90 369.82 87.96 371.07 88.04 C 371.21 88.39 371.49 89.10 371.63 89.45 C 370.13 89.52 368.64 89.50 367.15 89.55 C 366.38 93.95 365.71 98.97 361.97 101.95 C 360.16 103.05 357.54 104.00 355.89 102.10 C 355.03 101.25 356.36 100.58 356.73 99.86 C 357.91 100.47 359.10 101.06 360.30 101.65 C 363.51 98.96 363.53 94.52 364.42 90.74 C 364.06 90.08 363.71 89.41 363.36 88.75 C 366.02 86.91 365.40 83.20 366.01 80.41 C 363.26 80.88 362.03 83.10 361.36 85.57 C 360.68 86.24 359.99 86.92 359.31 87.59 C 359.52 85.20 359.74 82.42 361.92 80.92 Z" />
<path fill="#4a484c" d=" M 433.72 83.00 C 435.01 79.09 439.73 77.80 443.12 79.89 C 442.91 80.65 442.49 82.17 442.28 82.94 C 440.99 81.88 440.00 79.87 438.06 80.22 C 436.15 80.46 434.72 83.41 436.16 84.89 C 438.07 87.76 442.45 89.99 441.20 94.05 C 439.65 98.42 433.68 99.24 430.13 96.88 C 432.46 93.92 435.74 97.89 438.74 96.60 C 438.76 95.17 438.89 93.72 438.70 92.30 C 437.14 89.08 432.27 87.21 433.72 83.00 Z" />
<path fill="#4a484c" d=" M 570.45 82.44 C 573.03 78.77 578.12 77.93 582.07 79.75 C 581.73 81.08 581.42 82.41 581.12 83.74 C 580.06 82.10 579.36 79.60 576.95 79.75 C 574.17 80.07 572.39 82.78 571.50 85.21 C 570.36 88.44 569.39 92.49 571.79 95.41 C 573.65 97.39 576.50 96.09 578.81 95.97 C 578.75 95.52 578.64 94.64 578.59 94.19 C 578.84 94.73 579.36 95.80 579.62 96.34 C 576.72 97.98 572.82 99.21 569.80 97.26 C 565.86 93.25 567.32 86.50 570.45 82.44 Z" />
<path fill="#807b94" d=" M 87.20 79.76 C 87.83 81.86 88.58 83.93 89.57 85.89 L 88.82 84.99 C 88.26 86.91 87.68 88.83 87.21 90.77 L 88.00 90.63 C 86.17 92.30 84.66 94.28 83.46 96.45 C 80.95 100.97 76.05 103.66 71.06 104.48 C 72.51 104.74 73.94 105.10 75.34 105.56 C 70.39 106.24 65.04 106.02 60.68 103.31 C 55.06 100.04 50.20 93.76 51.38 86.93 C 51.52 84.12 53.49 81.86 55.93 80.67 C 55.23 84.65 53.91 89.00 56.13 92.76 C 59.67 98.16 66.47 102.01 72.99 100.21 C 77.52 98.47 79.92 93.97 82.19 90.00 C 82.26 90.89 82.39 92.68 82.46 93.57 C 85.06 89.40 87.26 84.79 87.20 79.76 Z" />
<path fill="#4a484c" d=" M 399.70 80.43 C 400.24 80.37 401.33 80.24 401.87 80.18 C 401.70 81.49 401.54 82.81 401.39 84.13 C 402.37 84.18 404.33 84.30 405.31 84.35 C 404.29 85.79 402.46 85.58 400.94 85.86 C 400.43 89.26 399.92 92.66 399.43 96.07 C 400.80 95.80 402.18 95.54 403.56 95.30 C 401.89 97.09 399.38 99.19 396.93 97.34 C 396.79 97.74 396.52 98.53 396.39 98.93 C 397.13 94.60 397.70 90.24 398.61 85.95 C 398.05 85.63 396.92 85.00 396.36 84.68 C 398.83 84.55 399.13 82.30 399.70 80.43 Z" />
<path fill="#4a484c" d=" M 653.83 80.58 C 654.35 80.47 655.40 80.24 655.93 80.13 C 655.80 81.42 655.68 82.71 655.56 84.00 C 656.38 84.07 658.01 84.20 658.83 84.27 C 658.79 84.62 658.72 85.32 658.68 85.68 C 657.87 85.60 656.25 85.45 655.45 85.38 C 654.94 87.52 654.38 89.66 654.01 91.83 C 653.57 94.05 653.93 96.30 654.37 98.48 C 652.98 98.18 651.14 97.86 651.13 96.06 C 651.40 92.52 652.27 89.05 652.84 85.55 C 652.26 85.49 651.09 85.38 650.50 85.32 C 652.24 84.21 653.37 82.58 653.83 80.58 Z" />
<path fill="#5c3881" d=" M 152.80 100.54 C 150.07 94.48 151.56 87.23 155.04 81.79 C 157.99 87.31 152.24 94.71 157.97 99.20 C 156.24 99.64 154.52 100.09 152.80 100.54 Z" />
<path fill="#4a484c" d=" M 443.78 96.95 C 442.13 90.20 448.02 82.08 455.41 83.79 C 454.99 88.14 453.72 92.37 453.67 96.76 C 454.91 95.88 456.15 94.98 457.40 94.12 C 456.14 96.42 454.19 98.59 451.29 98.08 C 451.16 97.04 450.90 94.97 450.77 93.93 C 449.36 96.04 446.21 100.17 443.78 96.95 Z" />
<path fill="#4a484c" d=" M 474.78 87.85 C 476.09 85.29 478.85 84.28 481.41 83.47 C 487.67 87.68 482.13 99.80 474.93 97.78 C 472.14 95.25 473.11 90.76 474.78 87.85 Z" />
<path fill="#4a484c" d=" M 514.02 91.93 C 514.65 88.07 517.28 84.83 520.97 83.52 C 522.03 84.04 523.09 84.57 524.15 85.10 C 524.41 87.62 524.55 90.18 524.19 92.70 C 522.73 95.48 520.33 98.15 516.94 98.18 C 514.30 97.66 513.12 94.26 514.02 91.93 Z" />
<path fill="#4a484c" d=" M 534.56 84.49 C 535.92 84.12 537.64 82.90 538.44 84.85 C 538.78 88.78 537.60 92.63 537.37 96.54 C 538.28 96.05 540.11 95.08 541.02 94.59 C 539.64 96.93 537.26 98.91 534.45 97.63 C 534.30 93.70 537.01 89.52 535.19 85.79 L 534.56 84.49 Z" />
<path fill="#4a484c" d=" M 379.88 87.69 C 381.18 85.68 383.04 84.17 385.27 83.28 C 387.83 87.45 383.74 92.25 385.79 96.46 C 385.70 96.92 385.51 97.85 385.42 98.31 C 384.67 98.13 383.16 97.77 382.41 97.59 C 382.37 93.54 383.22 89.57 383.92 85.59 C 382.57 86.29 381.22 86.99 379.88 87.69 Z" />
<path fill="#4a484c" d=" M 389.65 91.18 C 390.11 88.54 390.43 85.77 391.77 83.40 C 392.20 83.63 393.07 84.11 393.50 84.35 C 393.17 88.49 391.92 92.51 391.82 96.69 C 392.99 95.86 394.16 95.02 395.35 94.21 C 394.17 96.34 392.41 98.78 389.57 98.02 C 389.59 95.74 389.58 93.46 389.65 91.18 Z" />
<path fill="#4a484c" d=" M 406.44 96.56 C 403.97 91.42 407.88 85.09 413.01 83.40 C 413.89 84.38 415.57 85.17 415.16 86.78 C 415.33 90.70 411.11 92.12 408.03 92.92 C 408.24 94.30 408.82 95.47 409.79 96.44 C 411.78 96.37 413.48 95.15 415.29 94.44 C 413.64 97.24 408.76 100.04 406.44 96.56 Z" />
<path fill="#4a484c" d=" M 459.67 88.08 C 459.48 86.16 460.84 84.78 461.99 83.43 C 462.50 83.81 463.53 84.56 464.04 84.94 C 464.46 86.29 464.89 87.63 465.33 88.98 C 467.42 87.09 469.65 82.15 472.93 84.82 C 470.68 86.99 467.16 87.62 465.91 90.80 C 466.62 92.44 467.31 94.08 468.01 95.73 C 468.80 95.67 470.39 95.54 471.19 95.48 C 469.87 96.54 468.74 98.24 466.89 98.29 C 465.34 96.89 464.84 94.76 464.03 92.93 C 462.26 95.17 460.74 98.39 457.40 98.18 C 457.52 97.62 457.78 96.50 457.90 95.94 C 460.12 95.34 462.23 94.19 463.32 92.05 C 463.68 89.71 462.12 87.62 461.05 85.67 C 460.71 86.27 460.01 87.47 459.67 88.08 Z" />
<path fill="#4a484c" d=" M 485.67 86.24 C 487.51 85.22 489.41 84.33 491.36 83.55 C 491.23 84.71 490.97 87.01 490.84 88.16 C 492.32 86.25 494.06 84.56 496.12 83.27 C 500.27 85.88 498.19 91.64 495.79 94.80 C 494.36 97.21 491.66 98.09 489.04 98.43 C 487.95 102.56 484.17 107.69 479.37 105.58 C 479.46 103.17 482.78 104.16 484.33 104.37 C 487.12 98.90 487.33 92.60 488.03 86.61 C 487.44 86.52 486.26 86.33 485.67 86.24 Z" />
<path fill="#807b94" d=" M 525.06 86.64 C 526.71 85.58 528.07 83.82 530.14 83.60 C 532.02 84.07 531.60 86.19 532.00 87.61 C 532.83 86.56 533.68 85.51 534.56 84.49 L 535.19 85.79 C 533.90 87.97 532.35 89.99 530.87 92.04 C 531.11 89.54 531.16 87.02 530.95 84.51 C 530.40 84.69 529.29 85.05 528.74 85.23 C 527.78 86.34 526.68 87.32 525.33 87.90 C 524.93 89.50 524.56 91.10 524.19 92.70 C 524.55 90.18 524.41 87.62 524.15 85.10 C 524.38 85.48 524.83 86.25 525.06 86.64 Z" />
<path fill="#4a484c" d=" M 541.53 94.00 C 541.14 89.54 544.23 85.64 547.89 83.48 C 548.59 83.75 549.99 84.29 550.69 84.57 C 552.51 89.26 547.90 92.52 543.77 92.86 C 544.24 94.27 544.87 95.62 545.69 96.87 C 547.38 96.10 549.06 95.30 550.71 94.44 C 550.68 94.76 550.62 95.39 550.59 95.70 C 548.77 96.71 547.01 98.26 544.81 98.18 C 542.73 98.07 541.54 95.87 541.53 94.00 Z" />
<path fill="#4a484c" d=" M 602.21 87.37 C 603.88 85.59 605.72 83.89 608.25 83.54 L 608.24 84.74 C 608.27 88.82 607.62 92.85 606.38 96.73 C 606.12 96.73 605.61 96.72 605.36 96.72 C 605.17 96.38 604.79 95.71 604.61 95.38 C 605.18 92.24 605.83 89.11 606.15 85.92 C 605.37 86.33 603.81 87.14 603.03 87.54 C 602.83 87.50 602.42 87.41 602.21 87.37 Z" />
<path fill="#4a484c" d=" M 609.83 87.34 C 610.41 85.10 612.74 84.31 614.50 83.22 C 615.95 86.46 612.09 86.87 610.08 88.14 C 610.02 87.94 609.89 87.54 609.83 87.34 Z" />
<path fill="#4a484c" d=" M 615.54 86.22 C 617.27 85.07 619.26 84.49 621.29 84.16 C 620.37 88.28 619.66 92.45 619.25 96.65 C 620.46 95.84 621.68 95.03 622.92 94.23 C 622.06 95.97 620.64 97.30 619.16 98.50 C 618.49 98.16 617.16 97.47 616.49 97.13 C 616.97 93.71 617.68 90.34 618.08 86.91 C 617.45 86.74 616.18 86.39 615.54 86.22 Z" />
<path fill="#4a484c" d=" M 622.12 87.87 C 623.22 85.73 625.17 84.32 627.29 83.28 C 628.49 85.01 628.68 87.06 628.36 89.14 C 630.03 86.52 631.90 83.09 635.59 84.21 C 635.68 88.46 634.44 92.58 634.46 96.82 C 636.45 95.24 638.56 93.47 639.02 90.80 C 639.81 87.11 642.71 84.31 646.33 83.38 C 647.03 84.56 648.06 85.63 648.30 87.04 C 647.48 89.41 645.74 91.32 644.15 93.19 C 643.25 94.33 641.87 92.24 640.99 92.35 C 641.16 93.62 641.33 94.89 641.51 96.16 C 644.00 96.69 646.17 95.31 648.34 94.33 C 646.94 96.01 645.29 97.64 643.06 98.04 C 641.17 98.80 639.06 97.20 638.95 95.24 C 638.66 95.09 638.07 94.79 637.78 94.64 C 636.57 96.30 635.25 98.14 633.00 98.28 C 631.14 97.50 631.71 95.48 631.92 93.94 C 632.32 91.20 633.40 88.39 632.44 85.64 C 630.39 87.72 628.60 90.11 627.80 92.96 C 627.77 91.73 627.63 90.50 627.48 89.28 C 626.73 92.21 628.68 97.95 624.23 98.12 C 624.43 93.85 626.09 89.72 625.73 85.42 C 624.53 86.25 623.32 87.06 622.12 87.87 Z" />
<path fill="#4a484c" d=" M 528.74 85.23 C 529.29 85.05 530.40 84.69 530.95 84.51 C 531.16 87.02 531.11 89.54 530.87 92.04 C 530.47 94.00 529.95 95.93 529.50 97.88 C 528.90 97.85 527.71 97.79 527.11 97.76 C 527.87 93.61 528.74 89.46 528.74 85.23 Z" />
<path fill="#807b94" d=" M 608.24 84.74 C 608.78 85.59 609.31 86.46 609.83 87.34 C 609.89 87.54 610.02 87.94 610.08 88.14 L 610.28 88.78 C 608.01 91.39 607.90 94.91 606.65 97.98 C 606.05 97.94 604.84 97.84 604.24 97.79 C 604.33 96.98 604.45 96.18 604.61 95.38 C 604.79 95.71 605.17 96.38 605.36 96.72 C 605.61 96.72 606.12 96.73 606.38 96.73 C 607.62 92.85 608.27 88.82 608.24 84.74 Z" />
<path fill="#fefdfe" d=" M 87.21 90.77 C 87.68 88.83 88.26 86.91 88.82 84.99 L 89.57 85.89 C 90.62 87.19 91.73 88.44 92.85 89.69 C 91.24 90.01 89.62 90.33 88.00 90.63 L 87.21 90.77 Z" />
<path fill="#fefdfe" d=" M 411.10 85.67 C 415.19 86.67 410.98 91.61 408.33 91.71 C 408.59 89.46 409.41 87.24 411.10 85.67 Z" />
<path fill="#fefdfe" d=" M 447.75 87.58 C 448.30 85.37 450.91 85.80 452.62 85.84 C 452.39 90.05 449.82 93.48 446.97 96.36 C 445.00 93.68 446.69 90.27 447.75 87.58 Z" />
<path fill="#fefdfe" d=" M 476.21 94.94 C 475.61 91.21 476.27 86.39 480.24 84.77 C 481.81 88.22 481.75 92.41 479.66 95.63 C 478.99 97.25 475.92 97.10 476.21 94.94 Z" />
<path fill="#fefdfe" d=" M 518.94 85.61 C 520.50 84.88 521.47 85.34 521.83 86.97 C 522.24 89.89 521.98 92.97 520.45 95.55 C 519.99 97.30 516.79 97.08 516.94 95.00 C 516.11 91.75 517.21 88.36 518.94 85.61 Z" />
<path fill="#fefdfe" d=" M 544.37 91.85 C 544.26 89.46 545.25 87.19 547.05 85.63 C 551.06 86.91 546.81 91.34 544.37 91.85 Z" />
<path fill="#fefdfe" d=" M 593.45 86.41 C 594.84 86.10 597.19 84.89 597.95 86.84 C 597.34 90.04 595.63 93.00 593.30 95.24 C 591.44 97.34 591.20 94.61 591.40 93.10 C 591.71 90.77 592.59 88.58 593.45 86.41 Z" />
<path fill="#fefdfe" d=" M 641.17 91.86 C 641.20 89.10 642.54 86.49 645.13 85.31 C 646.80 88.47 643.90 90.96 641.17 91.86 Z" />
<path fill="#fefdfe" d=" M 488.95 95.67 C 490.25 91.87 491.91 87.81 495.63 85.76 C 496.15 89.56 494.99 93.22 493.13 96.48 C 491.73 96.22 490.34 95.95 488.95 95.67 Z" />
<path fill="#fefdfe" d=" M 102.12 93.88 C 108.60 94.30 115.08 91.96 119.34 86.98 C 118.85 91.54 118.30 96.09 117.88 100.65 C 117.69 102.15 117.50 103.64 117.29 105.13 C 115.33 103.28 113.39 101.43 111.42 99.60 C 108.69 99.56 105.96 99.60 103.23 99.55 C 102.78 97.97 102.46 96.36 102.18 94.74 L 102.12 93.88 Z" />
<path fill="#807b94" d=" M 389.66 90.74 L 389.65 91.18 C 389.58 93.46 389.59 95.74 389.57 98.02 L 389.57 98.03 C 389.26 97.00 388.96 95.98 388.66 94.95 C 387.59 96.08 386.52 97.21 385.42 98.31 C 385.51 97.85 385.70 96.92 385.79 96.46 L 386.06 95.23 C 387.28 93.75 388.46 92.24 389.66 90.74 Z" />
<path fill="#807b94" d=" M 654.37 98.48 C 653.93 96.30 653.57 94.05 654.01 91.83 C 654.01 92.85 654.02 94.89 654.03 95.91 C 654.99 95.66 656.92 95.16 657.88 94.91 C 656.74 96.13 655.58 97.34 654.37 98.48 Z" />
<path fill="#fefdfe" d=" M 86.97 95.06 C 90.62 91.23 97.41 93.34 98.94 98.20 C 98.34 98.28 97.15 98.42 96.55 98.50 C 96.44 97.82 96.23 96.48 96.12 95.81 C 94.46 96.40 92.58 98.08 93.77 99.97 C 94.68 101.39 96.40 101.89 97.76 102.74 C 96.28 105.64 94.99 108.64 94.15 111.80 C 90.94 110.75 88.92 107.91 86.74 105.53 C 85.93 102.13 84.83 98.21 86.97 95.06 Z" />
<path fill="#4a484c" d=" M 102.18 94.74 C 102.46 96.36 102.78 97.97 103.23 99.55 C 105.96 99.60 108.69 99.56 111.42 99.60 C 113.39 101.43 115.33 103.28 117.29 105.13 C 117.50 103.64 117.69 102.15 117.88 100.65 C 118.14 104.78 117.79 108.94 116.19 112.80 C 116.22 110.80 116.33 108.80 116.45 106.80 C 115.40 105.06 114.24 103.39 112.96 101.81 C 111.98 101.41 111.01 100.99 110.05 100.56 C 107.41 100.26 104.76 100.73 102.13 100.65 C 102.12 98.68 102.19 96.71 102.18 94.74 Z" />
<path fill="#807b94" d=" M 97.76 102.74 C 98.20 102.97 98.63 103.19 99.07 103.42 C 96.16 107.00 94.40 111.42 94.52 116.07 C 94.27 115.16 94.00 114.26 93.73 113.36 C 93.42 113.42 92.79 113.54 92.47 113.60 C 94.54 119.11 94.75 125.89 90.59 130.51 C 86.88 135.29 78.54 136.64 74.60 131.44 C 70.74 127.41 71.87 120.98 75.14 116.94 C 77.90 116.62 80.95 114.86 83.51 116.77 C 86.13 118.63 87.10 122.84 85.35 125.58 C 83.56 129.24 76.65 128.43 76.54 124.00 C 76.30 120.99 79.67 119.47 82.14 120.76 C 83.78 122.44 82.36 124.59 81.34 126.16 C 81.38 124.57 82.17 122.88 81.55 121.35 C 78.89 118.67 75.89 123.69 77.83 126.00 C 78.84 128.32 81.71 126.97 83.55 126.72 C 84.33 124.66 85.63 122.44 84.69 120.20 C 83.96 118.78 82.81 117.61 81.59 116.62 C 79.55 116.09 77.43 117.09 75.39 117.33 C 73.01 120.56 71.78 124.84 73.18 128.73 C 74.60 131.65 77.57 134.22 81.00 133.88 C 87.70 133.89 92.33 127.14 92.62 120.97 C 92.40 115.63 89.37 110.33 84.46 108.00 L 84.80 107.65 C 85.46 106.96 86.10 106.25 86.74 105.53 C 88.92 107.91 90.94 110.75 94.15 111.80 C 94.99 108.64 96.28 105.64 97.76 102.74 Z" />
<path fill="#807b94" d=" M 101.98 103.97 C 105.11 101.54 109.06 102.90 112.20 104.49 C 109.15 104.71 105.54 103.71 103.01 105.94 C 98.39 109.25 98.94 117.44 104.22 119.82 C 108.60 122.24 113.85 119.34 115.87 115.18 C 115.77 116.61 115.70 118.04 115.65 119.47 C 112.33 122.70 107.33 123.77 103.02 122.04 C 96.13 118.93 95.45 107.86 101.98 103.97 Z" />
<path fill="#5c3881" d=" M 168.14 125.07 C 170.15 121.84 171.95 116.58 176.52 116.70 C 179.63 118.66 179.15 122.77 178.58 125.88 C 180.47 122.52 182.17 118.51 185.83 116.75 C 188.03 116.08 189.68 117.90 190.21 119.84 C 190.61 127.34 187.48 134.64 188.36 142.12 C 190.11 140.02 191.99 138.01 193.85 136.00 C 194.67 129.44 196.59 122.23 202.15 118.08 C 203.90 116.60 206.44 116.26 208.39 117.58 C 211.39 121.63 209.90 127.29 206.86 130.86 C 204.84 133.19 201.79 134.11 198.90 134.81 C 199.15 137.22 198.81 141.18 201.98 141.72 C 205.17 140.98 207.50 138.49 210.17 136.76 C 210.34 140.82 206.67 142.96 203.59 144.69 C 201.48 145.88 198.60 145.96 196.69 144.35 C 195.35 142.73 194.72 140.68 193.86 138.80 C 192.17 141.58 190.23 144.79 186.85 145.64 C 185.23 146.13 183.37 144.68 183.47 142.98 C 182.87 135.76 185.64 128.75 185.39 121.54 C 178.98 127.53 176.71 136.72 176.10 145.21 C 174.54 145.15 172.99 145.11 171.43 145.04 C 172.52 137.53 173.60 130.02 174.55 122.49 C 174.27 122.39 173.71 122.18 173.43 122.08 C 169.69 127.03 166.65 132.90 165.99 139.15 C 166.55 139.51 167.65 140.24 168.21 140.61 C 167.63 140.27 166.48 139.59 165.90 139.25 C 165.55 141.13 165.20 143.01 164.87 144.90 C 163.38 145.03 161.89 145.16 160.40 145.28 C 161.34 137.09 162.94 128.98 163.66 120.75 C 161.24 121.92 159.79 124.27 157.97 126.13 C 157.28 123.04 159.41 120.48 161.49 118.50 C 162.87 117.24 164.97 116.06 166.79 117.20 C 168.67 119.38 167.97 122.45 168.14 125.07 Z" />
<path fill="#5c3881" d=" M 146.18 118.00 C 149.19 116.39 152.70 117.20 155.94 117.35 C 154.98 125.63 153.16 133.83 153.05 142.20 C 155.01 140.29 156.53 137.92 158.82 136.36 C 158.75 141.13 154.59 146.00 149.58 145.65 C 147.98 142.62 148.17 139.23 148.74 135.97 C 147.15 139.39 145.49 143.28 142.03 145.17 C 140.12 146.17 138.30 144.96 136.64 144.11 C 136.56 142.64 136.37 141.17 136.44 139.70 C 137.69 136.01 138.71 132.16 138.31 128.23 C 139.97 124.25 142.16 120.04 146.18 118.00 Z" />
<path fill="#5c3881" d=" M 214.56 125.03 C 214.87 121.42 217.28 117.67 220.96 116.81 C 222.78 116.57 224.53 117.31 226.28 117.68 C 225.45 119.69 226.92 123.91 224.10 124.26 C 223.07 123.27 223.15 121.64 222.54 120.40 C 221.39 120.22 220.25 120.09 219.10 120.01 C 216.84 125.17 221.85 129.17 223.40 133.70 C 225.36 138.19 222.33 143.53 217.98 145.18 C 215.54 145.98 212.86 145.41 210.68 144.17 C 209.82 142.35 212.09 140.98 212.76 139.45 C 214.39 140.49 215.89 142.21 218.01 142.03 C 219.35 141.65 219.95 140.19 220.24 138.97 C 219.19 133.97 214.16 130.40 214.56 125.03 Z" />
<path fill="#5c3881" d=" M 335.99 119.10 C 339.30 118.57 342.65 118.93 345.98 118.90 C 364.97 118.90 383.97 118.91 402.96 118.89 C 415.31 119.37 427.68 119.27 440.04 118.90 C 499.71 118.88 559.38 118.91 619.05 118.90 C 639.94 119.07 660.86 118.55 681.74 119.17 C 681.63 119.70 681.41 120.77 681.29 121.31 C 598.19 121.11 515.09 121.35 431.99 121.19 C 424.98 120.67 417.96 120.68 410.95 121.18 C 385.90 121.13 360.83 121.45 335.79 121.08 C 335.84 120.58 335.94 119.59 335.99 119.10 Z" />
<path fill="#fefdfe" d=" M 144.94 121.98 C 146.34 119.83 148.82 121.02 150.79 121.43 C 150.60 127.19 147.90 132.37 145.06 137.24 C 144.18 138.74 142.80 139.84 141.50 140.95 C 140.47 134.50 141.68 127.63 144.94 121.98 Z" />
<path fill="#fefdfe" d=" M 199.42 132.21 C 199.01 127.68 200.80 122.93 204.28 119.95 C 207.77 124.43 204.05 130.41 199.42 132.21 Z" />
<path fill="#4a484c" d=" M 138.31 128.23 C 138.71 132.16 137.69 136.01 136.44 139.70 C 135.94 135.78 136.92 131.87 138.31 128.23 Z" />
</svg>
